# xmcd
#
# Track frame offsets:
#	150
#	9907
#	25689
#	39872
#	56141
#	69022
#	79151
#	98078
#	118075
#	137492
#	163831
#	184100
#	208444
#
# Disc length: 3154 seconds
#
# Revision: 1
# Processed by: cddbd v1.5.2PL0 Copyright (c) Steve Scherf et al.
# Submitted via: audiograbber 1.83.01
#
DISCID=a50c500d
DTITLE=Oscar Peterson Ella Fitzgerald - JATP Lausanne 1953
DYEAR=1953
DGENRE=Jazz
TTITLE0=It's Only a papermoon
TTITLE1=Someone to watch over me
TTITLE2=Lady be good
TTITLE3=Why don't you do rigth
TTITLE4=You belong to me
TTITLE5=A Tisket - a Tasket
TTITLE6=St. Louis Blues
TTITLE7=Lester leaps in
TTITLE8=The Surrey with the fringe on top
TTITLE9=My Heart stood still
TTITLE10=The Continental
TTITLE11=Oscar's tune
TTITLE12=The man I love
EXTD=YEAR: 1953
EXTT0=
EXTT1=
EXTT2=
EXTT3=
EXTT4=
EXTT5=
EXTT6=
EXTT7=
EXTT8=
EXTT9=
EXTT10=
EXTT11=
EXTT12=
PLAYORDER=
